<?xml version="1.0" standalone="no"?>
<!DOCTYPE svg PUBLIC "-//W3C//DTD SVG 20010904//EN"
 "http://www.w3.org/TR/2001/REC-SVG-20010904/DTD/svg10.dtd">
<svg version="1.0" xmlns="http://www.w3.org/2000/svg"
 width="500" height="500" viewBox="0 0 500.000000 200.000000" 
 preserveAspectRatio="none">

<g transform="translate(0.000000,500.000000) scale(0.100000,-0.100000)"
fill="#000000" stroke="none">
<path d="M3080 3823 c-207 -22 -358 -85 -480 -199 l-49 -46 -31 36 c-42 47
-165 129 -234 155 -109 41 -209 54 -356 48 -74 -4 -162 -12 -195 -20 -59 -13
-60 -13 -63 -50 -3 -33 -6 -37 -31 -37 -34 0 -33 4 -56 -250 -27 -305 -35
-381 -62 -563 -14 -97 -24 -179 -22 -182 3 -2 33 5 68 15 103 32 237 45 332
32 44 -7 85 -15 91 -18 21 -13 -19 -24 -92 -24 -95 0 -246 -23 -343 -51 -73
-22 -75 -24 -81 -58 -3 -19 -4 -36 -3 -38 2 -1 23 5 47 13 25 9 65 20 90 25
303 62 510 51 643 -35 66 -42 73 -51 81 -108 10 -66 52 -119 116 -147 64 -27
116 -30 191 -8 95 28 139 80 139 165 0 97 166 171 385 172 117 0 285 -26 407
-63 26 -8 49 -13 50 -11 2 2 2 19 0 38 -4 32 -9 37 -51 50 -103 34 -183 47
-316 52 -111 3 -141 7 -143 19 -5 22 41 30 173 29 89 0 144 -6 213 -23 51 -13
96 -20 99 -17 3 3 -2 58 -12 123 -24 168 -42 323 -60 518 -8 94 -20 212 -26
263 -11 87 -13 92 -35 92 -19 0 -24 5 -24 25 0 33 -20 42 -155 65 -114 20
-133 21 -205 13z m-917 -109 c135 -30 254 -99 322 -188 l25 -33 0 -415 c0
-228 -3 -418 -7 -421 -3 -4 -40 26 -82 66 -162 155 -340 227 -562 227 -47 0
-111 -5 -143 -11 -32 -6 -60 -8 -63 -5 -5 5 2 91 27 316 5 47 16 162 25 255
19 200 20 202 48 211 83 26 286 26 410 -2z m1156 5 l49 -10 11 -77 c16 -119
29 -234 41 -392 7 -80 16 -172 21 -205 5 -33 9 -72 9 -87 0 -25 -2 -26 -32
-18 -58 17 -231 23 -300 11 -73 -13 -169 -41 -226 -68 -74 -34 -181 -114 -233
-173 -45 -52 -54 -59 -60 -43 -13 32 -10 829 2 857 24 52 196 161 303 191 118
34 295 40 415 14z m-1284 -880 c180 -47 367 -177 430 -299 13 -25 17 -26 89
-25 l75 0 31 46 c104 158 289 265 516 300 85 13 200 3 260 -23 26 -11 13 -13
-106 -19 -150 -7 -210 -18 -291 -49 -174 -69 -299 -165 -359 -279 -27 -50 -39
-63 -75 -76 -34 -14 -50 -15 -83 -5 -50 13 -75 37 -109 105 -39 77 -115 144
-234 207 -126 67 -265 98 -441 98 -151 0 -145 13 22 44 48 9 199 -5 275 -25z"/>
<path d="M1832 3629 c-17 -6 -22 -15 -20 -31 3 -22 7 -23 118 -24 175 -1 327
-44 430 -119 56 -41 70 -43 70 -12 0 58 -152 149 -305 183 -68 15 -258 17
-293 3z"/>
<path d="M1813 3490 c-15 -6 -23 -18 -23 -33 0 -23 1 -23 128 -23 131 1 196
-10 292 -47 65 -25 161 -79 180 -102 19 -23 40 -18 40 8 0 62 -167 153 -352
191 -83 17 -229 20 -265 6z"/>
<path d="M1827 3363 c-27 -4 -53 -36 -43 -52 3 -4 48 -6 99 -3 158 8 327 -41
457 -133 70 -49 90 -55 90 -26 0 51 -167 152 -315 190 -77 21 -234 34 -288 24z"/>
<path d="M1825 3232 c-36 -6 -40 -10 -43 -39 -2 -18 -2 -33 0 -33 2 0 30 5 63
10 144 24 367 -43 509 -152 54 -42 76 -48 76 -19 0 42 -166 157 -280 194 -110
36 -246 52 -325 39z"/>
<path d="M1845 3096 c-5 -3 -27 -7 -47 -11 -31 -5 -38 -10 -38 -29 0 -12 2
-25 5 -28 3 -2 33 0 68 5 68 11 209 -4 281 -29 72 -26 199 -96 248 -136 45
-37 68 -42 68 -14 0 18 -78 89 -140 128 -65 40 -145 76 -215 94 -50 14 -211
27 -230 20z"/>
<path d="M2990 3630 c-14 -4 -45 -13 -70 -21 -128 -37 -260 -131 -244 -173 9
-23 21 -20 68 19 90 73 234 115 411 121 92 2 122 6 129 18 7 9 5 20 -3 30 -11
13 -36 16 -140 15 -69 0 -137 -4 -151 -9z"/>
<path d="M3094 3500 c-137 -18 -264 -66 -348 -130 -43 -33 -62 -54 -64 -73 -4
-36 12 -34 62 6 116 95 268 141 466 142 81 0 95 3 98 17 2 9 -5 21 -15 26 -28
15 -131 21 -199 12z"/>
<path d="M3131 3369 c-139 -13 -260 -57 -382 -140 -57 -38 -69 -54 -69 -90 0
-23 13 -25 31 -3 25 30 195 122 264 143 87 25 213 41 281 34 43 -4 52 -2 58
13 16 41 -44 55 -183 43z"/>
<path d="M3115 3235 c-5 -1 -37 -9 -70 -16 -123 -26 -245 -89 -327 -167 -36
-34 -48 -65 -30 -76 4 -2 25 10 46 28 60 52 154 104 241 133 70 24 96 27 213
27 112 1 133 3 137 17 9 27 -5 46 -37 53 -31 6 -154 7 -173 1z"/>
<path d="M3095 3093 c-52 -7 -157 -44 -225 -79 -87 -46 -180 -128 -180 -160 0
-13 4 -24 8 -24 4 0 35 23 67 51 67 56 167 107 265 135 48 13 97 18 188 17
l123 -1 -3 26 c-2 21 -10 28 -33 33 -33 7 -162 8 -210 2z"/>
<path d="M3567 3623 c-2 -4 13 -161 34 -348 35 -310 52 -441 80 -625 22 -142
22 -150 7 -150 -8 0 -37 7 -64 15 -247 73 -500 92 -640 48 -38 -12 -86 -33
-105 -46 -30 -20 -35 -29 -40 -77 -3 -30 -4 -57 -2 -60 2 -2 37 12 76 33 112
56 181 70 317 64 108 -5 166 -15 513 -93 42 -9 80 -14 84 -11 3 4 -8 116 -26
249 -17 134 -49 396 -71 582 -22 187 -42 352 -45 367 -4 17 -16 31 -33 38 -44
17 -79 23 -85 14z"/>
<path d="M1453 3608 c-35 -12 -38 -19 -48 -123 -3 -33 -15 -134 -25 -225 -11
-91 -24 -208 -30 -260 -6 -52 -15 -124 -20 -160 -22 -143 -50 -391 -50 -435 0
-44 1 -47 23 -41 12 3 51 13 87 22 36 8 101 24 145 35 178 45 269 59 374 59
122 0 179 -13 288 -68 40 -20 75 -34 78 -31 2 3 -1 31 -7 63 -11 52 -17 60
-53 81 -78 46 -149 60 -300 60 -77 -1 -167 -6 -200 -14 -51 -11 -239 -60 -298
-77 -22 -7 -22 -6 23 316 16 113 39 288 50 390 11 102 25 215 30 252 6 37 10
90 10 117 0 47 -2 51 -22 50 -13 -1 -37 -6 -55 -11z"/>
<path d="M3100 2396 c-137 -26 -242 -91 -306 -191 -52 -81 -68 -150 -61 -261
6 -101 30 -158 94 -222 67 -67 141 -95 253 -96 77 -1 92 2 152 32 74 36 115
78 155 160 22 45 25 62 21 120 -6 82 -33 147 -82 195 -61 61 -110 81 -197 82
-67 0 -81 -3 -125 -30 -85 -52 -117 -151 -74 -234 39 -77 109 -113 175 -91 67
22 97 98 55 140 -27 27 -56 25 -84 -5 -38 -41 -56 -33 -56 23 0 38 5 53 24 71
35 33 95 38 148 12 148 -71 133 -280 -24 -345 -55 -23 -154 -21 -203 5 -101
53 -148 132 -147 249 1 129 56 211 181 268 78 36 218 37 303 4 82 -33 145 -94
168 -162 17 -50 22 -55 50 -58 44 -5 60 13 60 63 0 82 -46 153 -134 208 -56
36 -101 52 -190 67 -69 12 -70 12 -156 -4z"/>
<path d="M1785 2386 c-55 -17 -136 -60 -171 -89 -39 -33 -76 -110 -78 -159 0
-31 5 -44 23 -59 39 -32 54 -24 89 51 27 59 41 75 90 109 111 75 235 89 362
42 151 -57 221 -198 176 -355 -24 -83 -99 -158 -180 -181 -121 -35 -236 18
-272 128 -36 110 17 207 132 238 72 21 150 -26 142 -84 -3 -23 -23 -26 -81
-11 -63 15 -114 -55 -83 -115 32 -61 138 -62 189 -2 32 39 71 162 62 198 -17
68 -134 131 -226 120 -92 -11 -189 -81 -235 -168 -21 -42 -29 -142 -15 -195
16 -58 67 -131 120 -170 145 -104 360 -74 471 67 52 66 65 113 65 239 0 94 -3
111 -28 165 -52 112 -157 197 -284 230 -69 18 -213 19 -268 1z"/>
<path d="M1379 2259 c-23 -23 -21 -37 7 -56 17 -11 23 -10 42 3 27 19 28 50 3
64 -26 13 -28 13 -52 -11z"/>
<path d="M3672 2253 c-12 -23 -5 -40 19 -53 22 -12 53 0 62 24 14 37 -63 64
-81 29z"/>
<path d="M2428 1773 c-2 -263 -1 -506 0 -541 l4 -62 26 28 c15 15 36 34 47 42
20 15 20 25 17 501 l-3 487 -27 5 c-15 3 -35 9 -44 12 -16 6 -17 -25 -20 -472z"/>
<path d="M2625 2235 l-40 -12 -2 -482 -3 -483 51 -49 50 -49 -6 542 c-4 299
-7 543 -8 544 -1 0 -20 -5 -42 -11z"/>
<path d="M1543 1984 c-21 -9 -15 -52 8 -65 18 -9 25 -7 43 10 16 17 18 25 10
39 -11 17 -39 25 -61 16z"/>
<path d="M3512 1978 c-19 -19 -14 -44 13 -58 21 -11 29 -11 50 0 43 23 26 70
-25 70 -14 0 -31 -5 -38 -12z"/>
<path d="M2725 1698 c-9 -38 12 -156 35 -193 66 -107 225 -131 260 -39 21 55
-26 104 -74 78 -37 -19 -49 -18 -96 6 -32 16 -46 33 -75 95 -20 41 -38 75 -41
75 -2 0 -6 -10 -9 -22z"/>
<path d="M2351 1687 c-6 -16 -11 -30 -11 -33 0 -16 -58 -87 -85 -104 -34 -21
-90 -27 -100 -10 -10 16 -47 12 -61 -7 -18 -24 -17 -64 1 -90 19 -27 76 -46
114 -38 56 12 121 63 142 109 24 54 36 156 21 182 -10 18 -11 17 -21 -9z"/>
</g>
</svg>
