<?xml version="1.0" standalone="no"?>
<!DOCTYPE svg PUBLIC "-//W3C//DTD SVG 20010904//EN"
 "http://www.w3.org/TR/2001/REC-SVG-20010904/DTD/svg10.dtd">
<svg version="1.0" xmlns="http://www.w3.org/2000/svg"
 width="500.000000pt" height="500.000000pt" viewBox="0 0 500.000000 500.000000"
 preserveAspectRatio="xMidYMid meet">

<g transform="translate(0.000000,500.000000) scale(0.100000,-0.100000)"
fill="#000000" stroke="none">
<path d="M2938 3690 c-62 -11 -200 -56 -258 -85 -42 -21 -114 -75 -80 -60 8 4
-1 -7 -20 -23 -20 -18 -43 -29 -57 -27 -25 2 -73 31 -73 44 0 19 -110 76 -209
109 -98 32 -116 35 -236 36 -119 1 -134 -1 -174 -23 -47 -24 -121 -97 -121
-117 0 -7 -14 -38 -32 -70 l-32 -59 -1 -240 c0 -132 -4 -348 -9 -480 l-8 -240
31 -42 c37 -50 59 -63 193 -108 197 -65 387 -143 441 -179 67 -43 95 -55 168
-67 83 -13 148 3 284 71 66 33 126 60 133 60 7 0 73 24 145 54 73 29 162 63
199 75 79 26 128 57 145 91 10 19 13 141 13 506 l0 480 -39 80 c-69 141 -131
194 -252 214 -71 11 -84 11 -151 0z m-770 -126 c133 -44 213 -88 284 -153 l67
-61 66 58 c108 96 272 169 402 179 128 10 217 -29 254 -111 17 -37 19 -70 19
-373 0 -420 7 -399 -150 -438 -177 -44 -368 -131 -456 -209 -43 -37 -45 -37
-69 -22 -29 19 -88 20 -130 2 -28 -12 -32 -10 -83 31 -95 78 -277 156 -486
210 -83 22 -102 43 -116 128 -14 86 -13 603 1 646 18 53 58 99 103 120 64 29
197 26 294 -7z m-341 -964 c102 -28 311 -113 426 -172 89 -47 112 -68 88 -83
-5 -3 -12 -19 -16 -35 l-7 -30 -31 24 c-77 56 -290 151 -477 211 -30 10 -58
23 -62 29 -10 15 -10 76 0 76 4 0 40 -9 79 -20z m1453 -24 l0 -44 -107 -37
c-60 -20 -133 -48 -163 -62 -30 -14 -73 -32 -95 -41 -22 -9 -77 -37 -122 -64
l-83 -47 -6 27 c-4 15 -11 33 -17 40 -5 7 -8 14 -5 17 14 14 169 93 258 132
79 34 315 120 338 123 1 0 2 -20 2 -44z m-712 -229 c27 -13 52 -56 52 -87 0
-54 -58 -96 -119 -87 -97 15 -104 20 -104 77 0 92 85 140 171 97z"/>
<path d="M2275 3329 l-35 -31 0 -272 c0 -252 1 -273 20 -303 33 -55 107 -57
135 -3 8 16 15 46 15 68 0 30 7 45 33 70 l33 32 107 -105 c88 -87 111 -105
137 -105 54 0 98 65 79 119 -6 16 -50 66 -99 111 -49 44 -92 90 -95 101 -5 16
14 41 94 124 104 106 115 129 91 175 -14 26 -65 42 -96 30 -14 -6 -82 -66
-152 -135 l-127 -125 -2 103 c-4 135 -7 145 -48 163 -46 19 -49 19 -90 -17z"/>
<path d="M3570 3065 c-3 -33 -7 -150 -9 -259 -4 -275 -29 -366 -146 -532 -84
-118 -228 -217 -392 -271 l-78 -25 -440 2 c-409 1 -445 2 -514 21 -134 38
-235 93 -341 188 -70 62 -136 171 -171 280 -26 82 -23 27 4 -65 58 -202 217
-371 419 -446 78 -29 94 -31 283 -39 358 -14 726 -11 813 7 217 44 411 195
512 398 63 129 71 186 68 516 -2 157 -5 258 -8 225z"/>
</g>
</svg>
