<svg width="401" height="401" viewBox="0 0 401 401" fill="none" xmlns="http://www.w3.org/2000/svg">
<path d="M138.574 271.271C137.502 271.335 136.439 271.031 135.563 270.409C134.686 269.787 134.048 268.885 133.754 267.851C133.725 267.716 133.644 267.598 133.527 267.523C133.411 267.448 133.27 267.422 133.134 267.451C132.999 267.481 132.881 267.562 132.806 267.678C132.731 267.795 132.705 267.936 132.734 268.071C132.807 268.76 133.028 269.426 133.381 270.022C133.734 270.618 134.212 271.131 134.781 271.526C135.351 271.921 135.999 272.188 136.681 272.31C137.363 272.432 138.063 272.405 138.734 272.231C138.862 272.21 138.975 272.139 139.05 272.034C139.125 271.929 139.156 271.799 139.134 271.671C139.113 271.544 139.042 271.43 138.937 271.355C138.832 271.28 138.702 271.25 138.574 271.271V271.271ZM141.494 265.951C142.394 265.951 143.734 265.731 144.014 264.891C144.294 264.051 143.674 263.131 142.534 261.231C142.473 261.117 142.37 261.032 142.246 260.995C142.122 260.957 141.988 260.97 141.874 261.031C141.76 261.092 141.675 261.196 141.638 261.32C141.6 261.444 141.613 261.577 141.674 261.691C142.13 262.576 142.505 263.5 142.794 264.451C142.358 264.697 141.885 264.872 141.394 264.971C141.281 265.003 141.183 265.074 141.117 265.171C141.05 265.269 141.021 265.386 141.033 265.503C141.045 265.62 141.097 265.73 141.182 265.812C141.266 265.893 141.377 265.943 141.494 265.951V265.951ZM135.454 253.191C135.764 252.85 136.181 252.625 136.637 252.556C137.092 252.487 137.558 252.577 137.954 252.811C138.068 252.869 138.198 252.889 138.324 252.869C138.45 252.848 138.567 252.787 138.656 252.696C138.745 252.604 138.803 252.486 138.821 252.36C138.838 252.233 138.815 252.104 138.754 251.991C138.494 251.649 138.148 251.382 137.751 251.218C137.354 251.054 136.92 250.999 136.495 251.058C136.069 251.117 135.667 251.288 135.329 251.554C134.992 251.82 134.731 252.171 134.574 252.571C134.535 252.686 134.533 252.811 134.57 252.927C134.608 253.042 134.682 253.143 134.781 253.213C134.88 253.283 135 253.319 135.121 253.315C135.243 253.311 135.36 253.268 135.454 253.191V253.191ZM143.434 252.311C143.994 252.308 144.532 252.523 144.934 252.911C145.016 253.013 145.13 253.084 145.257 253.113C145.384 253.142 145.517 253.127 145.634 253.071C146.674 252.571 145.174 250.531 143.454 251.071C142.494 251.271 142.694 252.291 143.434 252.311V252.311ZM137.374 257.091C136.794 257.091 136.454 257.831 136.494 258.911C136.494 259.611 136.494 260.791 137.514 260.811C138.534 260.831 138.374 259.591 138.374 258.811C138.374 258.031 138.214 257.051 137.374 257.091V257.091ZM144.854 256.351C144.254 256.351 143.934 257.051 143.974 258.151C143.974 258.851 143.974 260.031 145.014 260.051C146.054 260.071 145.854 258.831 145.854 258.051C145.854 257.271 145.694 256.291 144.854 256.351ZM196.994 304.431C197.345 304.205 197.634 303.894 197.834 303.527C198.033 303.16 198.138 302.749 198.138 302.331C198.138 301.914 198.033 301.503 197.834 301.136C197.634 300.769 197.345 300.458 196.994 300.231C196.576 300.042 196.115 299.965 195.657 300.008C195.2 300.051 194.761 300.213 194.385 300.478C194.01 300.743 193.71 301.101 193.515 301.517C193.32 301.933 193.237 302.393 193.274 302.851C193.308 303.267 193.454 303.665 193.697 304.003C193.941 304.341 194.272 304.605 194.656 304.768C195.039 304.931 195.46 304.986 195.872 304.926C196.284 304.867 196.673 304.696 196.994 304.431V304.431ZM195.794 300.951C197.274 300.951 197.634 302.831 196.434 303.631C195.554 304.211 194.334 303.951 194.254 302.751C194.241 302.313 194.391 301.886 194.676 301.553C194.961 301.221 195.36 301.006 195.794 300.951V300.951ZM285.814 87.5113H350.694C350.854 87.5115 351.011 87.465 351.145 87.3773C351.278 87.2897 351.384 87.1649 351.447 87.0183C351.511 86.8716 351.531 86.7095 351.503 86.5519C351.476 86.3943 351.404 86.2481 351.294 86.1313L324.114 56.1313V46.8513C324.11 45.4162 323.581 44.0323 322.627 42.9602C321.673 41.8882 320.359 41.2022 318.934 41.0313V20.4113C318.934 20.3719 318.927 20.3329 318.912 20.2965C318.896 20.2601 318.874 20.2271 318.847 20.1992C318.819 20.1713 318.786 20.1492 318.749 20.1342C318.713 20.1191 318.674 20.1113 318.634 20.1113H317.874C317.795 20.1113 317.719 20.1429 317.662 20.1992C317.606 20.2555 317.574 20.3318 317.574 20.4113V41.0113C316.146 41.1826 314.83 41.8715 313.875 42.9477C312.921 44.0239 312.394 45.4128 312.394 46.8513V56.0513L285.214 86.1313C285.105 86.2481 285.033 86.3943 285.005 86.5519C284.978 86.7095 284.998 86.8716 285.061 87.0183C285.125 87.1649 285.23 87.2897 285.364 87.3773C285.498 87.465 285.654 87.5115 285.814 87.5113V87.5113ZM297.494 153.491C297.588 153.547 297.697 153.571 297.805 153.559C297.913 153.547 298.015 153.501 298.094 153.426C298.173 153.351 298.226 153.253 298.244 153.145C298.262 153.038 298.245 152.928 298.194 152.831C297.937 152.37 297.55 151.993 297.082 151.748C296.613 151.503 296.084 151.399 295.557 151.45C295.031 151.501 294.531 151.704 294.119 152.035C293.706 152.365 293.399 152.809 293.234 153.311C293.094 154.011 293.634 154.251 294.034 153.811C294.234 153.554 294.485 153.341 294.77 153.184C295.056 153.027 295.371 152.931 295.695 152.901C296.019 152.871 296.346 152.908 296.656 153.01C296.965 153.111 297.251 153.275 297.494 153.491ZM304.954 151.671C304.47 151.565 303.965 151.602 303.5 151.775C303.035 151.949 302.631 152.253 302.334 152.651C302.275 152.748 302.25 152.862 302.264 152.975C302.278 153.088 302.33 153.193 302.412 153.272C302.494 153.351 302.6 153.4 302.713 153.411C302.826 153.422 302.939 153.394 303.034 153.331C303.544 153.053 304.131 152.95 304.705 153.036C305.279 153.123 305.809 153.395 306.214 153.811C306.263 153.885 306.328 153.947 306.404 153.992C306.48 154.037 306.566 154.064 306.654 154.071C307.474 154.071 307.254 151.991 304.954 151.671V151.671ZM301.194 161.491C300.697 161.774 300.112 161.86 299.554 161.731C298.874 161.351 299.554 159.111 299.914 158.411C299.953 158.295 299.947 158.169 299.899 158.056C299.85 157.944 299.762 157.853 299.651 157.801C299.54 157.749 299.414 157.74 299.297 157.775C299.179 157.81 299.079 157.887 299.014 157.991C298.397 159.059 298.092 160.279 298.134 161.511C298.374 163.331 300.474 163.291 301.714 162.311C301.823 162.242 301.9 162.133 301.928 162.007C301.956 161.882 301.933 161.75 301.864 161.641C301.795 161.533 301.686 161.456 301.56 161.428C301.435 161.399 301.303 161.422 301.194 161.491V161.491ZM298.894 165.511C298.259 165.517 297.637 165.329 297.112 164.971C296.586 164.614 296.182 164.104 295.954 163.511C295.901 163.411 295.815 163.333 295.71 163.288C295.606 163.243 295.49 163.236 295.381 163.266C295.271 163.296 295.175 163.363 295.109 163.454C295.042 163.546 295.009 163.658 295.014 163.771C295.069 164.228 295.22 164.668 295.458 165.062C295.695 165.457 296.013 165.796 296.391 166.059C296.768 166.322 297.198 166.501 297.65 166.586C298.102 166.671 298.567 166.659 299.014 166.551C299.152 166.535 299.278 166.465 299.365 166.357C299.451 166.248 299.49 166.109 299.474 165.971C299.458 165.833 299.388 165.707 299.28 165.621C299.171 165.535 299.032 165.495 298.894 165.511V165.511ZM296.094 155.511C295.154 155.511 294.974 157.271 295.754 157.891C296.534 158.511 297.154 157.891 297.054 156.711C296.974 156.011 296.574 155.511 296.094 155.511V155.511ZM304.314 155.511C303.154 155.391 302.914 157.951 304.074 158.071C305.234 158.191 305.494 155.611 304.314 155.511ZM299.474 207.531C298.776 207.534 298.089 207.708 297.474 208.038C296.859 208.369 296.335 208.845 295.947 209.426C295.559 210.007 295.32 210.674 295.251 211.369C295.182 212.064 295.284 212.765 295.55 213.411C295.815 214.056 296.235 214.627 296.773 215.072C297.311 215.518 297.95 215.824 298.634 215.964C299.318 216.105 300.026 216.075 300.696 215.877C301.365 215.68 301.976 215.32 302.474 214.831C303.079 214.238 303.493 213.477 303.663 212.648C303.833 211.818 303.752 210.956 303.43 210.172C303.108 209.388 302.56 208.719 301.855 208.248C301.151 207.778 300.322 207.528 299.474 207.531V207.531ZM299.474 215.011C298.952 215.011 298.438 214.882 297.978 214.636C297.517 214.389 297.125 214.034 296.834 213.6C296.544 213.166 296.365 212.667 296.313 212.147C296.261 211.628 296.338 211.103 296.537 210.621C296.736 210.138 297.05 209.711 297.453 209.379C297.856 209.047 298.334 208.818 298.846 208.715C299.357 208.611 299.887 208.635 300.387 208.784C300.887 208.934 301.343 209.204 301.714 209.571C302.154 210.02 302.452 210.588 302.571 211.204C302.69 211.821 302.625 212.459 302.384 213.039C302.143 213.619 301.737 214.115 301.216 214.466C300.695 214.817 300.082 215.006 299.454 215.011H299.474ZM292.874 184.691C285.394 178.691 285.894 179.091 285.674 179.191C285.454 179.291 285.674 178.731 284.534 187.311C284.525 187.353 284.526 187.396 284.536 187.437C284.546 187.478 284.565 187.517 284.592 187.549C284.619 187.582 284.653 187.608 284.691 187.626C284.73 187.644 284.772 187.652 284.814 187.651C285.014 187.651 286.394 187.171 292.814 185.211C292.864 185.191 292.906 185.157 292.938 185.115C292.971 185.072 292.991 185.022 292.997 184.969C293.003 184.916 292.995 184.862 292.973 184.814C292.952 184.765 292.918 184.723 292.874 184.691V184.691ZM315.274 181.531C305.974 180.991 306.454 180.891 306.314 181.091C306.174 181.291 306.014 180.771 309.594 188.771C309.617 188.819 309.65 188.86 309.692 188.891C309.734 188.923 309.783 188.943 309.834 188.951C310.074 188.951 309.714 189.391 315.494 182.011C315.527 181.968 315.547 181.917 315.553 181.863C315.559 181.809 315.55 181.755 315.528 181.706C315.505 181.657 315.47 181.614 315.425 181.584C315.38 181.553 315.328 181.535 315.274 181.531ZM328.434 192.631C329.075 192.631 329.702 192.441 330.234 192.085C330.767 191.729 331.183 191.223 331.428 190.631C331.673 190.039 331.737 189.388 331.612 188.759C331.487 188.131 331.179 187.553 330.725 187.1C330.272 186.647 329.695 186.339 329.066 186.214C328.438 186.089 327.787 186.153 327.194 186.398C326.602 186.643 326.096 187.058 325.74 187.591C325.384 188.124 325.194 188.751 325.194 189.391C325.2 190.249 325.543 191.07 326.149 191.677C326.756 192.283 327.577 192.626 328.434 192.631ZM332.934 208.031C332.979 208.06 333.031 208.075 333.084 208.075C333.138 208.075 333.19 208.06 333.234 208.031C340.054 205.851 339.634 206.031 339.694 205.751C339.754 205.471 340.134 205.871 334.134 200.191C334.095 200.148 334.044 200.118 333.987 200.103C333.93 200.089 333.871 200.092 333.815 200.111C333.76 200.13 333.712 200.165 333.676 200.211C333.64 200.257 333.619 200.313 333.614 200.371C332.694 208.231 332.694 207.871 332.934 208.031ZM330.234 219.171C330.208 219.126 330.17 219.088 330.125 219.061C330.079 219.035 330.027 219.021 329.974 219.021C329.922 219.021 329.87 219.035 329.824 219.061C329.779 219.088 329.741 219.126 329.714 219.171C327.954 224.611 327.934 224.351 328.094 224.551C328.254 224.751 328.094 224.691 333.854 224.071C333.91 224.067 333.964 224.047 334.009 224.014C334.054 223.981 334.089 223.936 334.11 223.884C334.131 223.832 334.137 223.775 334.127 223.72C334.117 223.664 334.092 223.613 334.054 223.571L330.234 219.171Z" fill="black"/>
<path d="M267.815 196.65C269.77 196.65 271.355 195.065 271.355 193.11C271.355 191.155 269.77 189.57 267.815 189.57C265.86 189.57 264.275 191.155 264.275 193.11C264.275 195.065 265.86 196.65 267.815 196.65Z" fill="black"/>
<path d="M267.074 201.291C267.048 201.245 267.01 201.207 266.964 201.181C266.918 201.155 266.867 201.141 266.814 201.141C266.761 201.141 266.709 201.155 266.664 201.181C266.618 201.207 266.58 201.245 266.554 201.291C263.034 208.851 263.214 208.351 263.354 208.551C263.494 208.751 263.014 208.691 270.774 208.091C270.825 208.085 270.873 208.067 270.915 208.037C270.956 208.008 270.99 207.968 271.012 207.922C271.034 207.876 271.044 207.825 271.041 207.774C271.037 207.723 271.021 207.674 270.994 207.631L267.074 201.291ZM265.454 225.891C265.471 225.958 265.51 226.018 265.564 226.061C265.618 226.104 265.685 226.129 265.754 226.131C265.954 226.131 265.654 226.351 271.234 221.051C271.271 221.015 271.298 220.969 271.312 220.92C271.326 220.87 271.327 220.817 271.315 220.767C271.303 220.717 271.278 220.67 271.243 220.632C271.208 220.595 271.163 220.567 271.114 220.551C263.754 218.551 264.074 218.551 263.874 218.751C263.674 218.951 263.674 218.591 265.454 225.891V225.891Z" fill="black"/>
<path d="M315.695 142.851H390.695C390.735 142.854 390.775 142.848 390.813 142.834C390.851 142.82 390.885 142.798 390.913 142.77C390.942 142.741 390.964 142.707 390.978 142.669C390.992 142.632 390.997 142.591 390.995 142.551V142.151C390.995 142.072 390.963 141.995 390.907 141.939C390.85 141.883 390.774 141.851 390.695 141.851H316.155C316.358 141.235 316.415 140.58 316.321 139.937C316.228 139.295 315.986 138.684 315.615 138.151C315.18 137.63 314.619 137.228 313.986 136.983C313.352 136.738 312.667 136.658 311.995 136.751C312.173 135.839 312.065 134.893 311.685 134.045C311.304 133.196 310.671 132.486 309.87 132.013C309.07 131.539 308.143 131.325 307.216 131.4C306.289 131.475 305.408 131.835 304.695 132.431C304.414 131.883 303.989 131.42 303.466 131.095C302.943 130.769 302.341 130.591 301.725 130.581C301.108 130.57 300.501 130.728 299.967 131.036C299.433 131.345 298.993 131.792 298.695 132.331C296.535 129.411 291.335 130.691 291.515 135.651C290.76 135.233 289.883 135.092 289.035 135.252C288.188 135.411 287.422 135.863 286.872 136.527C286.322 137.191 286.021 138.027 286.021 138.889C286.022 139.752 286.323 140.588 286.875 141.251C286.414 141.368 285.976 141.557 285.575 141.811H261.575C263.835 136.611 262.895 130.151 259.035 124.471C252.515 114.791 243.035 113.351 234.175 119.611C236.334 115.577 237.987 111.291 239.095 106.851C241.935 95.6512 241.755 78.1712 234.875 68.4112C232.827 65.504 230.195 63.0561 227.147 61.224C224.099 59.3919 220.703 58.2159 217.175 57.7712L216.555 56.6912C219.475 56.1312 220.215 51.4512 218.215 49.8712C218.648 47.5254 218.469 45.1075 217.695 42.8512C219.667 41.8802 221.177 40.1695 221.895 38.0912C221.906 38.0416 221.905 37.9898 221.891 37.9409C221.877 37.8919 221.85 37.8473 221.814 37.8113C221.778 37.7753 221.734 37.749 221.685 37.735C221.636 37.721 221.584 37.7197 221.535 37.7312C216.315 39.0912 210.895 29.4312 201.215 31.9512C199.737 32.2156 198.329 32.7818 197.08 33.6146C195.831 34.4473 194.767 35.5287 193.955 36.7912C193.44 37.8153 193.134 38.9316 193.055 40.075C192.976 41.2184 193.126 42.3661 193.495 43.4512C191.495 51.4512 194.275 63.9512 200.955 67.8912C196.955 73.6512 195.735 85.1712 195.415 90.1712L194.555 90.3512C194.289 89.5775 193.751 88.9272 193.04 88.5221C192.329 88.1171 191.495 87.9852 190.695 88.1512L181.355 88.8512C178.415 86.0912 164.275 73.9112 150.395 80.8512C132.875 89.4912 137.595 129.251 137.815 130.851C137.818 130.91 137.842 130.966 137.882 131.01C137.922 131.054 137.976 131.082 138.035 131.091L140.175 131.591C139.858 132.768 139.45 133.918 138.955 135.031C136.265 135.716 133.746 136.948 131.555 138.651C131.035 139.111 129.555 140.491 130.055 141.911H86.0545C86.0545 11.6912 86.2145 20.1712 85.7545 20.1712H85.3545C84.8945 20.1712 85.0545 11.7112 85.0545 141.931H56.4345C56.3565 141.936 56.2829 141.969 56.2277 142.024C56.1724 142.08 56.1393 142.153 56.1345 142.231C55.9945 146.631 55.9945 151.311 56.1345 156.551C56.1396 156.627 56.1734 156.699 56.2292 156.751C56.2849 156.803 56.3583 156.831 56.4345 156.831H58.4345V254.071H32.1745C32.095 254.071 32.0187 254.103 31.9624 254.159C31.9061 254.215 31.8745 254.292 31.8745 254.371V268.771C31.8745 268.811 31.8823 268.85 31.8974 268.886C31.9124 268.922 31.9345 268.955 31.9624 268.983C31.9903 269.011 32.0233 269.033 32.0597 269.048C32.0961 269.063 32.1351 269.071 32.1745 269.071H34.1745V366.171H10.6945C10.615 366.171 10.5387 366.203 10.4824 366.259C10.4261 366.315 10.3945 366.392 10.3945 366.471V366.851C10.3945 366.931 10.4261 367.007 10.4824 367.063C10.5387 367.12 10.615 367.151 10.6945 367.151H97.3345C110.975 382.271 135.615 381.531 151.935 381.471C207.275 381.231 206.515 382.431 213.295 381.031C222.995 379.031 229.095 374.611 232.455 367.211H236.295C237.467 368.121 238.696 368.956 239.975 369.711C241.075 370.331 243.635 371.711 245.375 370.731C246.335 370.151 246.615 368.871 246.135 367.191H257.135C257.255 367.403 257.403 367.598 257.575 367.771C258.795 368.971 268.115 369.111 271.255 367.991C271.767 367.792 272.231 367.485 272.615 367.091C399.055 367.091 390.935 367.271 390.935 366.791V366.431C390.935 365.951 398.935 366.131 273.075 366.131C272.955 363.231 265.495 361.111 262.715 360.331C261.727 358.668 260.632 357.071 259.435 355.551C260.4 354.767 261.272 353.874 262.035 352.891C262.073 352.839 262.095 352.776 262.095 352.711C262.095 352.646 262.073 352.583 262.035 352.531C253.775 341.791 247.655 334.311 238.035 328.531C237.985 328.503 237.928 328.491 237.871 328.494C237.814 328.498 237.759 328.517 237.712 328.551C237.666 328.584 237.631 328.631 237.61 328.684C237.589 328.737 237.584 328.795 237.595 328.851C239.595 336.411 239.815 344.671 240.415 353.931C240.417 354.089 240.368 354.244 240.275 354.371L237.775 355.611L237.395 354.791C237.975 354.471 238.515 354.151 238.855 353.911C238.931 353.868 238.993 353.803 239.032 353.725C239.071 353.646 239.086 353.558 239.075 353.471C237.615 330.471 232.035 299.011 209.075 302.051C211.075 299.491 212.755 297.651 209.755 296.211C207.755 295.331 192.415 289.051 190.435 288.891C188.795 288.751 188.035 289.791 187.175 290.891C186.315 291.991 181.175 299.491 179.655 302.091C179.835 299.471 179.775 296.491 179.655 293.911C180.259 294.079 180.903 294.029 181.475 293.771L181.955 294.431H182.115C182.604 294.545 183.085 294.692 183.555 294.871C183.633 294.902 183.718 294.912 183.801 294.901C183.885 294.89 183.964 294.858 184.032 294.808C184.1 294.758 184.154 294.692 184.189 294.616C184.225 294.539 184.24 294.455 184.235 294.371V293.051C184.246 292.998 184.246 292.944 184.235 292.891L183.435 291.611C183.746 291.145 183.917 290.599 183.927 290.039C183.937 289.478 183.785 288.926 183.49 288.45C183.195 287.973 182.768 287.591 182.262 287.35C181.756 287.109 181.191 287.02 180.635 287.091L177.955 282.791C177.015 281.951 174.695 283.411 175.135 284.791C175.135 284.951 177.435 287.951 177.655 288.231C176.827 288.66 176.148 289.328 175.705 290.149C175.263 290.969 175.078 291.904 175.175 292.831C171.811 296.782 167.742 300.071 163.175 302.531C162.615 301.671 162.095 300.771 161.575 299.891C156.215 290.811 150.895 284.371 140.615 281.891L140.475 278.251C145.915 277.791 148.015 274.251 148.615 268.831H266.095C270.604 277.206 275.738 285.229 281.455 292.831C281.506 292.879 281.574 292.906 281.645 292.906C281.715 292.906 281.783 292.879 281.835 292.831L283.335 291.931C283.483 292.248 283.65 292.555 283.835 292.851C282.653 295.57 282.345 298.59 282.955 301.491C283.115 302.191 283.735 304.451 285.395 304.591C287.055 304.731 288.815 302.271 289.515 300.731C290.483 298.509 291 296.115 291.035 293.691C291.168 292.398 290.788 291.105 289.975 290.091C289.733 289.535 289.46 288.995 289.155 288.471C289.615 288.191 289.815 288.131 289.835 287.911C290.181 281.554 290.128 275.182 289.675 268.831H308.515C308.323 275.681 308.583 282.536 309.295 289.351C309.295 289.591 309.455 289.591 310.595 290.011C310.407 290.447 310.246 290.895 310.115 291.351C308.235 293.191 310.115 301.851 314.115 304.671C314.39 304.903 314.709 305.077 315.052 305.183C315.395 305.289 315.757 305.326 316.115 305.291C318.115 304.871 318.335 301.531 318.315 300.111C318.232 297.766 317.587 295.475 316.435 293.431C316.605 293.081 316.752 292.721 316.875 292.351L319.175 293.191C319.244 293.22 319.321 293.221 319.392 293.195C319.462 293.169 319.52 293.118 319.555 293.051C325.49 285.487 330.675 277.362 335.035 268.791H390.695C391.135 268.791 391.135 267.811 390.695 267.811H335.335C337.38 263.645 339.04 259.3 340.295 254.831H390.695C391.135 254.831 391.135 253.871 390.695 253.871H351.055C352.248 251.599 352.93 249.094 353.055 246.531C353.215 240.531 351.055 233.991 344.095 227.011L342.095 225.191C347.635 214.271 344.735 197.891 339.095 187.191C336.987 183.072 334.029 179.448 330.415 176.559C326.802 173.67 322.616 171.581 318.135 170.431C314.747 169.516 311.242 169.111 307.735 169.231L307.415 167.691C308.375 165.993 309.051 164.148 309.415 162.231C309.749 162.361 310.12 162.361 310.455 162.231C312.255 161.511 313.135 158.391 312.755 156.671H390.695C390.735 156.674 390.775 156.668 390.813 156.654C390.851 156.64 390.885 156.618 390.913 156.59C390.942 156.561 390.964 156.527 390.978 156.489C390.992 156.452 390.997 156.411 390.995 156.371V155.991C390.995 155.952 390.987 155.913 390.972 155.876C390.957 155.84 390.935 155.807 390.907 155.779C390.879 155.751 390.846 155.729 390.809 155.714C390.773 155.699 390.734 155.691 390.695 155.691H312.295C312.062 155.469 311.776 155.309 311.465 155.229C311.153 155.148 310.826 155.149 310.515 155.231C310.563 153.706 310.778 152.19 311.155 150.711C315.695 150.931 317.255 146.111 314.555 143.931C315.004 143.653 315.393 143.286 315.695 142.851V142.851ZM311.215 156.391C312.295 156.811 311.515 160.691 310.075 161.371C310.011 161.41 309.939 161.431 309.865 161.431C309.79 161.431 309.718 161.41 309.655 161.371C309.947 159.873 310.128 158.356 310.195 156.831C310.3 156.663 310.454 156.531 310.636 156.453C310.818 156.374 311.02 156.353 311.215 156.391V156.391ZM340.535 254.011C341.701 249.753 341.98 245.301 341.355 240.931C341.077 239.171 340.438 237.488 339.478 235.987C338.517 234.486 337.256 233.201 335.775 232.211C338.249 230.93 340.262 228.91 341.535 226.431C343.343 228.094 344.984 229.929 346.435 231.911C352.755 240.251 352.915 247.911 349.975 253.911L340.535 254.011ZM310.355 292.711C310.917 293.487 311.72 294.055 312.639 294.326C313.558 294.597 314.541 294.557 315.435 294.211C316.355 296.08 316.854 298.128 316.895 300.211C316.895 302.491 316.535 305.251 314.635 303.971C311.955 302.211 309.755 295.211 310.355 292.711ZM288.175 300.411C287.575 301.811 286.175 303.651 285.335 303.651C284.495 303.651 284.075 302.191 283.895 301.371C283.35 298.757 283.543 296.042 284.455 293.531C285.375 293.777 286.35 293.714 287.231 293.353C288.112 292.992 288.851 292.352 289.335 291.531C290.055 293.571 289.015 298.371 288.175 300.411V300.411ZM282.875 243.391C281.935 241.731 282.055 241.151 282.135 241.091C282.215 241.031 283.075 241.291 283.995 242.531C286.485 246.104 288.352 250.074 289.515 254.271C289.534 254.331 289.571 254.385 289.621 254.424C289.671 254.463 289.731 254.486 289.795 254.491L306.815 254.911C306.882 254.914 306.948 254.893 307.003 254.853C307.057 254.813 307.097 254.756 307.115 254.691C308.563 250.281 310.502 246.048 312.895 242.071C313.815 240.531 314.575 240.231 314.695 240.271C315.775 240.851 309.295 248.031 308.315 267.931H289.335C288.695 259.491 287.175 250.851 282.875 243.391V243.391ZM284.495 292.491C284.367 292.156 284.22 291.829 284.055 291.511L287.895 289.211C288.141 289.686 288.415 290.147 288.715 290.591C288.311 291.321 287.682 291.901 286.921 292.244C286.16 292.586 285.309 292.673 284.495 292.491V292.491ZM310.875 291.731C311.084 291.356 311.271 290.969 311.435 290.571L315.635 292.131C315.485 292.474 315.364 292.828 315.275 293.191C314.482 293.457 313.624 293.459 312.831 293.195C312.037 292.932 311.351 292.418 310.875 291.731V291.731ZM161.335 303.731C161.223 303.798 161.143 303.905 161.111 304.031C161.079 304.157 161.098 304.29 161.165 304.401C161.231 304.513 161.339 304.593 161.464 304.625C161.59 304.657 161.723 304.638 161.835 304.571C167.835 301.191 170.735 299.871 175.935 293.611C176.032 293.479 176.075 293.314 176.055 293.151C175.927 292.375 176.053 291.579 176.413 290.88C176.773 290.182 177.349 289.617 178.055 289.271L178.575 289.971C178.162 290.327 177.846 290.781 177.655 291.291C177.542 291.314 177.44 291.375 177.367 291.465C177.294 291.554 177.254 291.666 177.254 291.781C177.254 291.897 177.294 292.008 177.367 292.098C177.44 292.187 177.542 292.248 177.655 292.271C178.584 292.273 179.505 292.443 180.375 292.771C180.599 292.863 180.792 293.015 180.935 293.211C180.702 293.24 180.467 293.24 180.235 293.211C179.595 293.211 178.895 293.071 178.535 293.451C178.476 293.513 178.435 293.589 178.415 293.672C178.394 293.754 178.395 293.84 178.417 293.922C178.439 294.004 178.481 294.079 178.54 294.141C178.6 294.202 178.673 294.247 178.755 294.271C178.755 294.451 178.515 303.351 178.515 304.131C178.195 304.53 177.951 304.984 177.795 305.471C177.692 305.871 177.705 306.293 177.832 306.686C177.96 307.079 178.196 307.427 178.515 307.691C171.604 309.438 164.863 311.801 158.375 314.751C158.135 311.771 158.375 310.291 158.375 305.471C158.375 300.651 158.375 299.091 155.775 295.471C153.663 292.674 151.293 290.083 148.695 287.731C146.945 286.196 145.034 284.855 142.995 283.731C152.795 287.031 158.155 297.251 162.095 303.151L161.335 303.731ZM178.435 291.331C178.587 291.07 178.761 290.823 178.955 290.591L179.775 291.651C179.35 291.457 178.898 291.329 178.435 291.271V291.331ZM190.635 290.191C189.315 290.891 188.635 292.571 186.515 295.391L181.355 302.851C181.298 302.96 181.283 303.085 181.313 303.204C181.343 303.323 181.415 303.426 181.516 303.495C181.617 303.564 181.74 303.594 181.861 303.578C181.983 303.563 182.094 303.503 182.175 303.411C183.315 301.791 188.475 294.291 188.895 293.631C190.375 291.351 190.995 290.411 192.895 290.751C196.435 292.091 207.955 296.751 209.235 297.251C209.795 297.511 210.095 297.771 210.155 298.031C210.295 298.611 209.435 299.671 207.995 301.451C206.875 302.851 199.515 312.191 198.355 313.131C197.823 313.556 197.154 313.77 196.475 313.731C195.635 313.731 194.875 313.391 188.295 311.251C188.895 310.611 188.695 309.851 187.895 309.771C188.435 309.391 189.055 308.651 188.695 308.091C188.335 307.531 186.975 307.891 185.655 308.091C187.315 306.451 186.515 305.171 185.115 305.791C184.574 306.151 184.013 306.478 183.435 306.771C182.885 306.956 182.313 307.063 181.735 307.091C181.962 306.158 181.962 305.184 181.735 304.251C181.698 304.15 181.64 304.057 181.565 303.98C181.49 303.902 181.4 303.842 181.299 303.802C181.199 303.762 181.092 303.744 180.984 303.749C180.876 303.754 180.771 303.782 180.675 303.831C180.485 303.962 180.325 304.131 180.205 304.328C180.084 304.524 180.006 304.743 179.975 304.971C179.786 305.622 179.531 306.252 179.215 306.851C179.032 306.703 178.896 306.505 178.825 306.281C178.754 306.057 178.75 305.817 178.815 305.591C178.975 304.891 187.655 292.331 188.095 291.731C188.935 290.351 189.335 289.871 190.695 290.131L190.635 290.191ZM258.435 366.851C257.608 365.824 257.015 364.63 256.695 363.351C259.575 363.571 261.555 362.891 262.595 361.351C265.635 362.161 268.54 363.414 271.215 365.071C272.295 365.911 272.235 366.351 270.715 366.951C266.666 367.847 262.468 367.813 258.435 366.851V366.851ZM57.0945 142.851H130.955C134.195 145.011 144.955 143.551 146.095 142.851H161.755C162.169 147.193 162.837 151.507 163.755 155.771H57.0945C57.1745 151.331 57.1745 147.071 57.0945 142.851ZM233.695 69.1712C238.055 75.5112 239.395 83.3112 239.435 91.1712C239.598 96.3179 239.073 101.463 237.875 106.471C236.889 110.632 235.412 114.66 233.475 118.471C232.022 121.339 230.177 123.991 227.995 126.351C225.002 122.995 221.603 120.025 217.875 117.511C219.593 117.599 221.312 117.345 222.932 116.765C224.553 116.185 226.042 115.29 227.315 114.131C229.687 111.895 231.538 109.164 232.735 106.131C236.235 96.9512 237.795 82.2912 232.975 72.9912C231.538 69.9978 229.267 67.4836 226.435 65.7512C226.323 65.7125 226.202 65.7143 226.092 65.7561C225.983 65.7978 225.891 65.877 225.834 65.9797C225.776 66.0824 225.757 66.202 225.779 66.3175C225.801 66.433 225.863 66.537 225.955 66.6112C228.551 68.3162 230.627 70.7036 231.955 73.5112C234.105 78.3248 235.045 83.591 234.695 88.8512C230.035 88.8512 221.615 88.9912 213.975 89.3512C214.105 84.7805 214.486 80.2203 215.115 75.6912C215.115 75.5708 215.071 75.4545 214.992 75.3636C214.913 75.2727 214.804 75.2132 214.685 75.1962C214.566 75.1792 214.445 75.2057 214.344 75.2709C214.242 75.3361 214.168 75.4356 214.135 75.5512C212.643 83.0826 212.292 90.7955 213.095 98.4312C207.687 99.9223 202.578 102.338 197.995 105.571L197.655 103.951C198.61 98.2568 200.914 92.8737 204.375 88.2512C204.995 87.4512 202.695 83.8912 205.135 68.9512C205.807 68.9453 206.477 68.8716 207.135 68.7312C207.604 69.2054 208.185 69.5544 208.825 69.7466C209.464 69.9387 210.141 69.9678 210.795 69.8312C212.208 69.5834 213.553 69.0403 214.742 68.2373C215.931 67.4343 216.937 66.3895 217.695 65.1712C218.548 63.8906 218.962 62.3675 218.875 60.8312L217.715 58.8312C220.933 59.4015 224.005 60.6102 226.75 62.386C229.494 64.1618 231.855 66.4688 233.695 69.1712V69.1712ZM275.815 227.631C293.575 228.291 314.995 228.411 322.335 228.191C322.486 228.741 322.486 229.321 322.335 229.871C321.668 230.005 321.048 230.165 320.475 230.351L276.075 229.651C275.798 229.016 275.708 228.316 275.815 227.631V227.631ZM275.815 226.651C274.424 219.699 273.754 212.621 273.815 205.531C273.815 201.531 273.815 199.331 274.895 198.351C276.515 196.871 284.195 196.131 286.515 195.931C302.175 194.491 320.835 195.931 324.955 197.931C326.775 198.891 326.635 200.391 326.335 203.391C325.494 211.426 324.158 219.401 322.335 227.271L275.815 226.651ZM244.695 369.591C242.895 370.671 237.275 366.531 235.755 365.151C234.935 364.391 234.615 364.111 234.215 361.971C234.215 361.611 234.095 361.251 234.055 360.871C234.882 361.026 235.737 360.917 236.498 360.557C237.26 360.198 237.888 359.608 238.295 358.871C240.396 361.036 242.347 363.341 244.135 365.771C244.695 366.851 245.575 369.051 244.695 369.591V369.591ZM234.855 365.991H232.975C233.195 365.431 233.395 364.871 233.595 364.311C233.868 364.968 234.301 365.545 234.855 365.991ZM233.795 359.591L232.455 356.911C233.768 356.511 235.045 356.002 236.275 355.391L237.475 357.971C237.189 358.664 236.647 359.22 235.961 359.522C235.275 359.825 234.498 359.849 233.795 359.591V359.591ZM32.8345 255.031H116.135C116.135 255.491 116.255 257.031 116.275 257.351C116.555 262.431 115.635 265.351 112.975 267.911H32.9745C32.9145 265.331 32.8545 256.951 32.8345 255.031ZM207.955 43.7712C210.862 44.6049 213.966 44.4215 216.755 43.2512C217.29 45.2655 217.419 47.3664 217.135 49.4312C216.599 49.356 216.052 49.4323 215.558 49.6515C215.063 49.8706 214.639 50.2238 214.335 50.6712C214.275 50.7766 214.254 50.8995 214.275 51.0187C214.297 51.1379 214.359 51.2459 214.451 51.3241C214.544 51.4024 214.661 51.4459 214.782 51.4472C214.903 51.4484 215.02 51.4074 215.115 51.3312C215.955 50.4312 216.775 50.4112 217.255 50.7112C218.295 51.3112 218.255 53.1712 217.755 54.2512C217.255 55.3312 215.755 56.1112 214.975 55.3112C214.865 54.5842 214.718 53.8632 214.535 53.1512C214.494 53.0266 214.413 52.9192 214.304 52.8466C214.195 52.774 214.065 52.7404 213.935 52.7512L212.695 52.8512C212.542 52.8714 212.399 52.9349 212.282 53.0342C212.165 53.1335 212.079 53.2644 212.035 53.4112C209.735 61.8112 203.275 54.0112 196.555 60.7112C194.175 55.3457 193.431 49.3976 194.415 43.6112C197.335 41.9112 200.695 41.9312 207.955 43.7712V43.7712ZM203.755 61.0112C205.755 61.0112 208.015 61.9512 208.035 63.2512C208.035 66.7112 200.415 66.5512 200.415 63.4912C200.415 61.7112 202.015 61.0112 203.755 61.0112V61.0112ZM204.135 69.0112C203.124 73.8214 202.74 78.7424 202.995 83.6512C200.835 83.3512 198.555 83.1712 197.395 83.1112C198.155 78.0712 199.715 71.6912 201.915 68.3712C202.627 68.658 203.373 68.8529 204.135 68.9512V69.0112ZM243.035 117.491C248.535 116.811 253.375 119.491 257.855 125.331C259.68 127.63 260.87 130.367 261.305 133.27C261.74 136.172 261.406 139.138 260.335 141.871H185.995C186.294 139.544 186.388 137.195 186.275 134.851C192.275 136.051 199.515 138.051 208.275 137.731C218.395 137.371 225.135 133.871 227.795 127.591C227.868 127.642 227.955 127.669 228.045 127.669C228.134 127.669 228.221 127.642 228.295 127.591C229.913 125.957 231.343 124.146 232.555 122.191C235.553 119.686 239.175 118.041 243.035 117.431V117.491ZM306.555 169.071L306.715 170.131C306.652 172.571 306.094 174.973 305.075 177.191C304.624 178.278 303.842 179.195 302.84 179.813C301.839 180.43 300.668 180.717 299.495 180.631C294.635 180.411 292.975 174.111 292.855 169.311L293.155 168.411C293.94 169.484 294.971 170.354 296.161 170.949C297.35 171.544 298.665 171.846 299.995 171.831C301.235 171.936 302.483 171.734 303.627 171.242C304.772 170.75 305.777 169.984 306.555 169.011V169.071ZM147.755 242.851C146.125 241.21 144 240.151 141.709 239.836C139.417 239.522 137.086 239.97 135.075 241.111C132.73 239.816 130.035 239.299 127.377 239.637C124.72 239.975 122.24 241.15 120.295 242.991C118.797 244.38 117.638 246.094 116.907 248.001C116.175 249.908 115.89 251.957 116.075 253.991H59.4945V156.851H163.895C164.435 159.511 166.675 169.791 167.175 172.231C167.192 172.298 167.23 172.358 167.285 172.401C167.339 172.445 167.405 172.469 167.475 172.471H168.795C168.865 173.385 168.831 174.305 168.695 175.211C166.357 177.027 164.423 179.308 163.015 181.911C161.015 186.371 163.735 188.071 168.275 186.251C171.011 185.117 173.603 183.66 175.995 181.911C177.395 180.831 178.795 179.511 178.615 177.911C178.4 176.355 177.7 174.906 176.615 173.771C176.615 173.051 176.495 172.431 176.435 171.971H177.895C177.959 171.973 178.023 171.952 178.074 171.911C178.125 171.871 178.161 171.815 178.175 171.751C179.215 167.971 181.335 161.531 182.715 156.831H287.075C287.075 158.951 288.355 161.891 290.335 161.491C290.709 163.518 291.426 165.465 292.455 167.251L291.975 168.651C288.32 168.667 284.685 169.193 281.175 170.211C266.815 174.331 256.555 186.211 252.995 202.871C251.295 210.671 251.915 218.231 254.695 223.611C248.815 232.111 243.715 242.351 249.955 253.971H150.335C150.815 249.471 151.255 246.191 147.755 242.851V242.851ZM104.215 287.811C106.895 288.751 108.675 288.491 109.395 290.391C110.115 292.291 108.175 296.691 110.075 300.251C111.595 303.071 114.695 304.251 118.815 303.571C124.095 319.571 136.975 332.451 146.815 336.071C149.725 337.189 152.884 337.494 155.955 336.951L154.995 341.651C147.512 340.111 140.501 336.822 134.535 332.051C127.219 325.421 121.759 316.997 118.695 307.611C118.641 307.506 118.551 307.423 118.442 307.377C118.332 307.331 118.21 307.326 118.097 307.362C117.984 307.398 117.888 307.473 117.825 307.574C117.762 307.674 117.737 307.794 117.755 307.911C120.738 317.568 126.265 326.245 133.755 333.031C144.635 342.451 161.755 345.251 175.975 345.251C192.555 345.251 203.415 340.611 213.975 345.571C214.036 345.612 214.111 345.629 214.184 345.618C214.258 345.607 214.324 345.569 214.371 345.512C214.419 345.455 214.443 345.382 214.44 345.308C214.437 345.234 214.406 345.164 214.355 345.111C207.395 336.251 205.795 329.491 203.735 319.111C203.155 316.231 205.255 318.111 205.515 319.111C210.895 339.231 217.775 347.951 228.475 357.471C228.527 357.515 228.587 357.548 228.653 357.569C228.718 357.59 228.786 357.597 228.855 357.591C229.682 357.512 230.504 357.378 231.315 357.191C233.315 361.191 232.675 359.511 233.115 362.091C230.135 371.811 223.515 377.571 212.915 379.691C203.935 381.411 203.115 380.071 154.595 379.551H151.415C131.615 379.911 101.655 380.451 91.9945 354.691C83.6345 331.991 97.5345 294.011 104.215 287.811V287.811ZM288.695 155.631C289.095 155.631 289.455 155.971 289.675 156.571C289.711 157.871 289.832 159.167 290.035 160.451C288.535 160.711 287.355 155.731 288.695 155.631V155.631ZM169.895 172.331L175.275 172.091C175.275 172.731 175.435 173.531 175.575 174.251C174.945 175.212 173.961 175.885 172.838 176.125C171.714 176.365 170.542 176.151 169.575 175.531C169.893 174.496 170.002 173.409 169.895 172.331V172.331ZM164.135 182.451C165.383 180.142 167.021 178.065 168.975 176.311C169.521 176.764 170.161 177.092 170.847 177.273C171.534 177.453 172.252 177.482 172.951 177.356C173.65 177.23 174.313 176.953 174.894 176.545C175.475 176.137 175.96 175.606 176.315 174.991C176.911 175.935 177.312 176.989 177.495 178.091C177.615 179.231 175.915 180.491 175.275 180.971C169.775 184.851 161.255 188.631 164.135 182.451ZM161.195 104.151C161.955 106.791 163.195 110.731 163.955 113.231C164.715 115.731 165.295 117.511 167.955 117.771C162.095 123.511 161.115 133.631 161.675 141.771H146.795C147.161 139.921 146.988 138.005 146.295 136.251C146.175 136.011 146.295 136.591 146.915 132.991L147.675 133.151C147.731 133.165 147.79 133.16 147.844 133.139C147.897 133.117 147.943 133.08 147.975 133.031C148.095 132.851 159.655 116.231 159.635 102.851L161.195 104.151ZM259.395 254.011H250.975C245.715 243.491 248.975 234.651 255.275 224.751C257.163 227.976 260.121 230.439 263.635 231.711C257.575 236.271 256.195 243.591 259.395 254.011V254.011ZM284.075 143.811C283.035 147.651 287.515 147.671 288.635 150.031C289.127 151.521 289.364 153.083 289.335 154.651C289.118 154.578 288.889 154.549 288.661 154.567C288.433 154.585 288.211 154.649 288.009 154.756C287.807 154.862 287.628 155.009 287.485 155.187C287.341 155.365 287.236 155.571 287.175 155.791H182.955C184.216 151.549 185.185 147.226 185.855 142.851H284.495C284.301 143.145 284.159 143.47 284.075 143.811V143.811ZM213.835 99.4112C214.595 99.1512 213.835 98.6912 213.975 90.4512C221.555 90.4512 229.975 90.2112 234.655 89.9512C234.235 97.9512 232.435 107.951 226.535 113.231C222.835 116.491 218.935 116.731 213.475 116.051C210.439 115.632 207.428 115.051 204.455 114.311C204.215 112.951 202.815 112.811 199.435 112.511L198.235 106.691C203.092 103.59 208.338 101.143 213.835 99.4112V99.4112ZM203.335 114.511C203.387 114.681 203.393 114.862 203.35 115.034C203.308 115.207 203.22 115.365 203.095 115.491C202.096 115.648 201.085 115.708 200.075 115.671C199.935 114.971 199.795 114.271 199.635 113.551C202.915 114.111 203.215 114.111 203.335 114.511V114.511ZM169.355 116.851C168.175 116.851 166.875 116.851 166.275 116.011C165.675 115.171 164.695 111.791 162.695 105.391C158.575 91.1912 158.595 91.9712 164.355 91.3912C170.115 90.8112 183.995 89.7912 190.715 89.3912C194.315 89.2712 193.035 89.5712 199.035 115.651L169.355 116.851ZM145.875 132.851C145.615 134.051 145.375 135.251 145.235 136.151C142.815 137.511 141.415 137.271 139.935 135.291C140.486 134.181 140.916 133.014 141.215 131.811L145.875 132.851ZM35.2745 269.051H111.675C106.775 272.631 99.2945 274.471 100.135 282.191C100.158 283.211 100.429 284.209 100.924 285.101C101.418 285.993 102.122 286.751 102.975 287.311C96.9745 293.311 81.6345 330.951 90.3345 355.311C91.7156 359.203 93.7442 362.835 96.3345 366.051H35.2745V269.051ZM154.555 296.171C157.035 299.631 156.795 301.131 156.895 305.451C156.805 308.7 156.886 311.951 157.135 315.191L156.695 315.391C147.835 309.911 143.555 296.391 131.175 291.391C131.055 291.341 130.921 291.34 130.801 291.389C130.681 291.437 130.585 291.532 130.535 291.651C130.484 291.771 130.483 291.905 130.532 292.025C130.581 292.145 130.675 292.241 130.795 292.291C143.015 297.431 146.915 311.111 156.295 316.791C156.394 316.841 156.504 316.866 156.615 316.866C156.726 316.866 156.835 316.841 156.935 316.791C164.035 313.346 171.44 310.567 179.055 308.491C179.255 308.491 179.335 308.311 179.415 308.131C180.435 306.131 180.595 304.851 180.835 304.631C181.079 305.467 181.079 306.355 180.835 307.191C180.615 307.791 181.155 308.011 181.395 308.091C182.191 308.216 183.007 308.098 183.735 307.751C184.187 307.515 184.61 307.226 184.995 306.891C185.615 306.451 185.435 307.171 185.215 307.431C184.792 307.768 184.351 308.082 183.895 308.371C183.555 308.651 183.695 309.091 184.175 309.091C185.153 309.101 186.131 309.02 187.095 308.851C187.915 308.691 187.515 309.271 187.315 309.411C186.681 309.721 186.008 309.943 185.315 310.071C185.241 310.101 185.178 310.153 185.134 310.218C185.09 310.284 185.067 310.362 185.067 310.441C185.067 310.521 185.09 310.598 185.134 310.664C185.178 310.73 185.241 310.781 185.315 310.811C185.911 310.965 186.538 310.965 187.135 310.811C187.335 310.811 187.755 310.811 187.235 311.151C186.601 311.409 185.918 311.525 185.235 311.491C185.179 311.478 185.121 311.478 185.065 311.49C185.009 311.503 184.957 311.528 184.912 311.563C184.867 311.599 184.831 311.644 184.806 311.696C184.781 311.747 184.768 311.804 184.768 311.861C184.768 311.918 184.781 311.975 184.806 312.027C184.831 312.078 184.867 312.123 184.912 312.159C184.957 312.195 185.009 312.22 185.065 312.232C185.121 312.245 185.179 312.244 185.235 312.231C185.614 312.261 185.995 312.261 186.375 312.231C186.635 312.231 186.615 312.231 186.375 312.371C185.79 312.547 185.185 312.641 184.575 312.651C183.868 312.671 183.165 312.55 182.506 312.296C181.847 312.042 181.245 311.66 180.735 311.171C180.625 311.073 180.482 311.018 180.335 311.018C180.187 311.018 180.045 311.073 179.935 311.171C174.135 316.531 165.135 341.331 147.155 334.871C138.095 331.511 125.575 319.251 119.875 303.451C126.835 301.751 130.495 295.571 129.295 287.571C132.795 289.671 139.495 292.991 143.575 292.651C146.955 292.411 147.955 289.351 144.355 286.071C145.529 286.901 146.651 287.803 147.715 288.771C150.205 291.02 152.494 293.483 154.555 296.131V296.171ZM140.455 285.011V284.251C142.115 285.351 145.495 287.771 145.595 289.831C145.595 291.051 144.395 291.331 143.595 291.391C139.595 291.691 132.635 288.191 129.175 286.131C128.712 284.23 128.041 282.385 127.175 280.631C124.775 275.371 124.655 273.451 124.975 270.011C125.18 268.813 125.118 267.583 124.795 266.411C124.795 266.291 124.675 266.071 124.455 266.031C124.235 265.991 124.075 266.151 124.015 266.191C122.695 267.551 121.595 266.191 120.975 264.451C120.774 264.049 120.698 263.595 120.759 263.149C120.82 262.703 121.013 262.286 121.315 261.951C122.315 261.091 123.315 261.691 124.015 262.831C125.555 265.331 126.435 266.711 126.015 269.531C125.875 270.291 126.555 270.471 126.995 269.931C128.715 267.931 128.775 265.111 128.835 262.171C128.995 255.471 129.595 254.831 133.615 249.971C134.91 248.492 136.106 246.929 137.195 245.291C139.11 245.173 141.014 245.663 142.635 246.691C146.515 249.371 147.035 254.371 147.335 260.591C147.589 264.169 147.387 267.764 146.735 271.291C145.615 275.691 143.155 276.751 139.495 277.051C139.401 277.059 139.31 277.086 139.227 277.131C139.145 277.176 139.072 277.237 139.015 277.311C138.755 277.631 138.775 277.311 139.595 285.091C139.648 285.161 139.72 285.215 139.801 285.249C139.883 285.282 139.972 285.293 140.059 285.281C140.147 285.269 140.229 285.234 140.299 285.179C140.368 285.125 140.422 285.053 140.455 284.971V285.011ZM148.455 262.391C149.513 263.48 150.939 264.135 152.455 264.231C152.514 264.235 152.573 264.22 152.624 264.19C152.675 264.16 152.716 264.115 152.742 264.061C152.768 264.008 152.777 263.948 152.768 263.889C152.76 263.83 152.734 263.775 152.695 263.731C151.667 262.562 150.903 261.185 150.455 259.694C150.006 258.203 149.883 256.634 150.095 255.091H259.575C261.097 259.507 262.955 263.8 265.135 267.931H148.455C148.579 266.074 148.599 264.211 148.515 262.351L148.455 262.391ZM210.695 68.7312C209.917 68.8756 209.114 68.7779 208.395 68.4512C213.215 66.7512 215.595 62.6112 215.135 56.6712H215.375L217.935 61.2112C217.676 63.0685 216.837 64.7965 215.536 66.1474C214.236 67.4982 212.541 68.4027 210.695 68.7312ZM197.195 84.0712C199.195 84.3312 201.375 84.5312 203.035 84.6112C203.035 85.7312 203.275 86.8312 203.455 87.8712C200.258 91.7528 198.067 96.3619 197.075 101.291C196.495 98.5512 195.295 92.8912 194.895 91.2912C197.255 90.8512 196.115 92.1712 197.235 84.0712H197.195ZM145.555 137.091C145.954 138.579 146.009 140.139 145.715 141.651C145.685 141.766 145.614 141.866 145.515 141.931C142.228 142.618 138.868 142.88 135.515 142.711C133.175 142.551 131.615 142.071 131.295 141.411C130.975 140.751 131.515 140.331 132.435 139.551C134.496 137.986 136.8 136.77 139.255 135.951C139.555 136.484 139.969 136.943 140.467 137.297C140.965 137.652 141.535 137.892 142.137 138C142.738 138.109 143.356 138.084 143.947 137.927C144.538 137.77 145.087 137.485 145.555 137.091V137.091ZM256.535 362.191C255.875 361.171 255.015 360.051 254.535 359.331C256.115 358.231 257.475 357.211 258.535 356.271L261.775 360.731C261.066 361.352 260.228 361.805 259.321 362.058C258.414 362.311 257.462 362.356 256.535 362.191V362.191ZM251.155 361.551C251.155 361.551 252.175 360.911 253.555 359.951C254.175 360.911 254.995 362.131 255.555 362.971C255.63 364.03 255.916 365.064 256.395 366.011H245.595C243.661 362.86 241.245 360.032 238.435 357.631L237.935 356.471C251.715 361.911 250.955 361.671 251.155 361.551V361.551ZM325.035 174.851C330.562 177.932 335.03 182.609 337.855 188.271L335.995 192.851C335.975 192.893 335.965 192.939 335.968 192.985C335.97 193.031 335.984 193.076 336.007 193.116C336.031 193.155 336.064 193.188 336.104 193.212C336.144 193.236 336.188 193.249 336.235 193.251L340.235 193.811C342.958 200.765 344.066 208.247 343.475 215.691C342.646 215.713 341.849 216.01 341.208 216.536C340.568 217.062 340.122 217.787 339.94 218.595C339.759 219.404 339.853 220.25 340.207 220.999C340.561 221.748 341.155 222.358 341.895 222.731C340.615 226.291 338.275 230.311 334.735 231.611C331.281 229.725 327.305 229.023 323.415 229.611C323.495 228.938 323.427 228.255 323.215 227.611C324.72 223.052 325.811 218.366 326.475 213.611C328.225 213.555 329.964 213.926 331.539 214.693C333.114 215.459 334.479 216.598 335.515 218.011C335.585 218.105 335.686 218.171 335.8 218.198C335.914 218.225 336.033 218.211 336.138 218.158C336.243 218.106 336.326 218.019 336.373 217.911C336.42 217.804 336.427 217.684 336.395 217.571C335.5 215.854 334.126 214.433 332.44 213.482C330.753 212.53 328.827 212.089 326.895 212.211C326.455 212.211 326.895 212.891 327.675 203.611C327.955 200.551 328.275 198.031 325.555 196.611C323.201 195.721 320.739 195.15 318.235 194.911C319.101 190.925 320.375 187.038 322.035 183.311C322.09 183.195 322.097 183.06 322.054 182.939C322.011 182.817 321.921 182.717 321.805 182.661C321.688 182.605 321.554 182.598 321.432 182.642C321.31 182.685 321.21 182.774 321.155 182.891C319.146 186.639 317.723 190.673 316.935 194.851C304.813 193.475 292.57 193.582 280.475 195.171C279.49 191.087 277.892 187.176 275.735 183.571C275.674 183.457 275.57 183.372 275.446 183.335C275.322 183.297 275.189 183.31 275.075 183.371C274.96 183.432 274.875 183.536 274.838 183.66C274.8 183.784 274.814 183.917 274.875 184.031C276.699 187.66 278.146 191.467 279.195 195.391C272.255 196.611 272.395 198.191 272.415 205.791C272.415 207.791 272.415 209.791 272.575 211.911C266.735 210.851 261.915 212.751 259.655 218.331C259.601 218.448 259.597 218.581 259.642 218.701C259.687 218.821 259.778 218.918 259.895 218.971C260.011 219.024 260.144 219.029 260.264 218.984C260.384 218.939 260.481 218.848 260.535 218.731C263.035 213.751 266.995 212.391 272.675 213.231C273.037 217.867 273.793 222.464 274.935 226.971C274.63 227.691 274.553 228.487 274.715 229.251C273.018 228.838 271.254 228.779 269.533 229.079C267.813 229.378 266.172 230.029 264.715 230.991C257.555 228.411 253.355 221.131 253.395 211.451C253.897 211.495 254.404 211.435 254.882 211.275C255.361 211.115 255.802 210.858 256.177 210.521C256.552 210.183 256.854 209.772 257.063 209.312C257.273 208.853 257.385 208.356 257.395 207.851C257.393 206.948 257.054 206.077 256.443 205.411C255.832 204.745 254.995 204.331 254.095 204.251C256.695 190.711 264.475 179.451 274.995 174.051C277.275 178.191 282.695 176.051 282.175 171.251C285.343 170.33 288.616 169.813 291.915 169.711C291.915 175.271 293.915 181.551 299.475 181.711C305.035 181.871 307.615 176.251 307.735 170.411C311.039 170.366 314.333 170.797 317.515 171.691C317.675 176.231 322.495 178.111 325.035 174.851V174.851ZM300.335 170.591C299.061 170.584 297.806 170.283 296.668 169.71C295.53 169.138 294.539 168.31 293.775 167.291C290.395 162.871 290.015 151.651 292.055 148.951C294.095 146.251 299.795 146.691 302.795 146.951C308.575 147.411 309.475 150.091 309.215 155.551C308.875 162.431 307.195 170.611 300.335 170.611V170.591ZM177.055 283.711C184.015 294.891 183.055 293.251 183.255 294.131L182.635 293.891L175.835 284.591C175.835 284.251 176.695 283.671 177.055 283.711V283.711ZM182.695 290.851L181.195 288.411C181.484 288.405 181.77 288.475 182.024 288.613C182.278 288.752 182.492 288.955 182.644 289.201C182.795 289.448 182.88 289.73 182.889 290.02C182.898 290.309 182.831 290.596 182.695 290.851V290.851Z" fill="black"/>
<path d="M203.435 56.1702C203.515 56.0642 203.549 55.9308 203.53 55.7995C203.511 55.6683 203.441 55.5498 203.335 55.4702C203.282 55.4308 203.223 55.4022 203.159 55.3859C203.095 55.3696 203.029 55.366 202.964 55.3753C202.833 55.394 202.715 55.4642 202.635 55.5702C202.492 55.7654 202.309 55.9285 202.099 56.049C201.889 56.1696 201.656 56.2449 201.415 56.2702C200.915 56.2702 200.675 55.6502 200.515 55.1702C200.265 53.8515 200.224 52.5016 200.395 51.1702C200.416 51.0429 200.386 50.9124 200.311 50.8074C200.236 50.7024 200.122 50.6315 199.995 50.6102C199.868 50.589 199.737 50.6193 199.632 50.6943C199.527 50.7693 199.456 50.8829 199.435 51.0102C197.975 57.7902 201.855 58.7302 203.435 56.1702V56.1702ZM204.115 50.2902C202.955 50.4502 203.275 53.2702 204.455 53.1502C205.635 53.0302 205.295 50.1302 204.115 50.2902ZM196.475 51.9502C195.435 52.1502 195.735 54.4502 196.635 54.7702C196.741 54.8142 196.856 54.8281 196.969 54.8105C197.082 54.7928 197.188 54.7443 197.275 54.6702C198.035 54.0302 197.495 51.7902 196.475 51.9502V51.9502ZM202.555 47.9502C202.919 47.6079 203.388 47.3996 203.886 47.3596C204.384 47.3197 204.881 47.4504 205.295 47.7302C205.395 47.7979 205.514 47.8301 205.635 47.822C205.755 47.8138 205.869 47.7656 205.959 47.6851C206.048 47.6046 206.108 47.4964 206.13 47.3777C206.151 47.2591 206.131 47.1367 206.075 47.0302C205.817 46.6786 205.474 46.3985 205.078 46.2168C204.681 46.035 204.245 45.9574 203.81 45.9915C203.376 46.0255 202.957 46.1701 202.594 46.4113C202.23 46.6526 201.935 46.9827 201.735 47.3702C201.695 47.4776 201.692 47.595 201.726 47.7043C201.76 47.8135 201.829 47.9086 201.923 47.9746C202.016 48.0407 202.129 48.0741 202.243 48.0697C202.357 48.0653 202.467 48.0233 202.555 47.9502V47.9502ZM194.555 50.3702C195.355 50.6302 195.175 49.2702 196.555 49.2702C196.668 49.2613 196.775 49.2186 196.863 49.1477C196.95 49.0768 197.015 48.981 197.047 48.8729C197.08 48.7648 197.079 48.6494 197.044 48.5418C197.01 48.4343 196.944 48.3396 196.855 48.2702C196.575 48.1155 196.261 48.0354 195.941 48.0377C195.621 48.04 195.308 48.1247 195.03 48.2835C194.753 48.4422 194.521 48.6698 194.357 48.9443C194.193 49.2187 194.103 49.5307 194.095 49.8502C194.09 49.9149 194.097 49.98 194.118 50.0416C194.138 50.1032 194.171 50.16 194.214 50.2086C194.257 50.2572 194.309 50.2966 194.368 50.3244C194.426 50.3522 194.49 50.3678 194.555 50.3702V50.3702ZM202.075 64.7102C202.766 65.0067 203.537 65.0614 204.263 64.8654C204.989 64.6694 205.627 64.2342 206.075 63.6302C206.415 63.1102 206.775 62.0102 206.195 61.7502C206.075 61.7029 205.942 61.7035 205.823 61.752C205.704 61.8004 205.608 61.8929 205.555 62.0102C205.304 62.6246 204.848 63.1333 204.265 63.4504C203.682 63.7674 203.007 63.8734 202.355 63.7502C202.228 63.7131 202.091 63.7281 201.975 63.7918C201.858 63.8556 201.772 63.9629 201.735 64.0902C201.698 64.2176 201.713 64.3544 201.777 64.4707C201.84 64.5869 201.948 64.6731 202.075 64.7102V64.7102ZM212.175 45.6902C212.615 45.6902 212.515 44.8902 212.175 44.9502C211.835 45.0102 211.755 45.7302 212.175 45.6902ZM214.015 45.2502C214.435 45.2502 214.335 44.4702 214.015 44.5102C213.695 44.5502 213.595 45.3102 214.015 45.2502ZM216.055 44.8502C216.475 44.8502 216.375 44.0702 215.955 44.1302C215.535 44.1902 215.615 44.8502 216.055 44.8502ZM213.055 47.4302C213.475 47.4302 213.395 46.6502 212.955 46.6902C212.515 46.7302 212.695 47.4902 213.055 47.4302ZM214.815 46.9702C215.235 46.9702 215.135 46.1702 214.815 46.2302C214.495 46.2902 214.375 47.0302 214.815 46.9702ZM216.295 46.3102C216.295 46.3523 216.303 46.3939 216.319 46.4327C216.335 46.4715 216.359 46.5068 216.389 46.5365C216.418 46.5662 216.454 46.5898 216.493 46.6059C216.531 46.622 216.573 46.6302 216.615 46.6302C216.657 46.6302 216.699 46.622 216.737 46.6059C216.776 46.5898 216.812 46.5662 216.841 46.5365C216.871 46.5068 216.895 46.4715 216.911 46.4327C216.927 46.3939 216.935 46.3523 216.935 46.3102C216.935 46.2682 216.927 46.2266 216.911 46.1878C216.895 46.149 216.871 46.1137 216.841 46.084C216.812 46.0543 216.776 46.0307 216.737 46.0146C216.699 45.9985 216.657 45.9902 216.615 45.9902C216.573 45.9902 216.531 45.9985 216.493 46.0146C216.454 46.0307 216.418 46.0543 216.389 46.084C216.359 46.1137 216.335 46.149 216.319 46.1878C216.303 46.2266 216.295 46.2682 216.295 46.3102ZM213.195 48.8502C212.775 48.8502 212.875 49.6502 213.195 49.5902C213.515 49.5302 213.635 48.8502 213.195 48.8502ZM214.815 48.4302C214.395 48.4302 214.495 49.2302 214.815 49.1702C215.135 49.1102 215.255 48.3902 214.815 48.4302ZM216.475 47.9702C216.055 47.9702 216.155 48.7502 216.475 48.6902C216.795 48.6302 216.895 47.9102 216.475 47.9702ZM175.095 103.77C175.211 104.152 175.4 104.508 175.653 104.817C175.906 105.126 176.218 105.382 176.57 105.57C176.922 105.759 177.307 105.876 177.704 105.916C178.102 105.955 178.503 105.916 178.885 105.8C179.267 105.685 179.623 105.495 179.932 105.242C180.24 104.989 180.496 104.678 180.685 104.326C180.873 103.974 180.991 103.588 181.03 103.191C181.07 102.794 181.031 102.392 180.915 102.01C180.799 101.628 180.61 101.272 180.357 100.964C180.104 100.655 179.792 100.399 179.44 100.21C179.088 100.022 178.703 99.9045 178.306 99.865C177.908 99.8255 177.507 99.8647 177.125 99.9802C176.743 100.096 176.387 100.286 176.078 100.539C175.77 100.792 175.514 101.103 175.325 101.455C175.137 101.807 175.019 102.192 174.98 102.59C174.94 102.987 174.979 103.388 175.095 103.77V103.77ZM178.695 104.85C178.183 104.956 177.649 104.866 177.199 104.599C176.749 104.332 176.415 103.907 176.263 103.406C176.11 102.906 176.15 102.366 176.374 101.893C176.598 101.421 176.991 101.049 177.475 100.85C177.987 100.745 178.521 100.834 178.971 101.101C179.421 101.368 179.755 101.794 179.907 102.294C180.06 102.795 180.02 103.334 179.796 103.807C179.572 104.28 179.179 104.652 178.695 104.85V104.85Z" fill="black"/>
</svg>
